<?xml version="1.0" encoding="utf-8"?>
<!DOCTYPE svg PUBLIC "-//W3C//DTD SVG 1.1//EN" "http://www.w3.org/Graphics/SVG/1.1/DTD/svg11.dtd">
<svg version="1.1" id="Layer_1" xmlns="http://www.w3.org/2000/svg" xmlns:xlink="http://www.w3.org/1999/xlink" x="0px" y="0px"
	 width="256px" height="256px" viewBox="0 0 600 600" enable-background="new 0 0 600 600" xml:space="preserve">
<path fill="#FFFFFF" d="M720,28.119v17.999h18V28.119H720z M737.053,45.17h-16.105V33.448h16.105V45.17z M737.053,32.263h-16.105
	v-3.198h16.105V32.263z M723.295,30.108h-1.326v1.326h1.326V30.108z M725.404,30.108h-1.326v1.326h1.326V30.108z M727.535,30.108
	h-1.326v1.326h1.326V30.108z M735.717,35.314l-0.671-0.668l-8.19,8.232l-3.926-3.927l-0.67,0.67l4.598,4.598L735.717,35.314z"/>
<path fill="#FFFFFF" d="M729,1.118l-0.284,0.212L720,7.824v11.294h18V7.824L729,1.118z M729,13.824l-7.736-5.765L729,2.294
	l7.737,5.765L729,13.824z M724.586,11.711l-3.639,5.39V9L724.586,11.711z M725.346,12.277L729,15l3.686-2.746l3.958,5.922h-15.282
	L725.346,12.277z M733.444,11.688L737.053,9v8.087L733.444,11.688z"/>
<path fill="#FFFFFF" d="M735.313,57.204c-1.636-1.299-3.862-2.085-6.313-2.086c-2.451,0.001-4.678,0.787-6.313,2.086
	C721.054,58.499,720,60.339,720,62.4c0.002,2.423,1.446,4.524,3.592,5.826l-2.307,4.892l4.809-3.824
	c0.912,0.251,1.889,0.389,2.906,0.389c2.451-0.001,4.678-0.787,6.313-2.087C736.946,66.301,738,64.461,738,62.4
	C738,60.339,736.946,58.499,735.313,57.204z M734.744,66.792c-1.449,1.155-3.485,1.886-5.744,1.885
	c-1.016,0-1.984-0.148-2.877-0.416l-0.227-0.068l-1.971,1.567l0.929-1.968l-0.42-0.227c-2.149-1.163-3.49-3.072-3.487-5.167
	c0-1.684,0.855-3.234,2.308-4.392c1.45-1.155,3.486-1.886,5.745-1.886c2.259,0,4.295,0.731,5.744,1.886
	c1.453,1.158,2.309,2.708,2.309,4.392S736.197,65.634,734.744,66.792z M723.789,63.657h2.131v-2.26h-2.131V63.657z M728.052,63.657
	h2.132v-2.26h-2.132V63.657z M732.314,63.657h2.132v-2.26h-2.132V63.657z"/>
<path fill="#FFFFFF" d="M722.605,86.745v1.032c0.661-0.358,1.422-0.648,2.131-0.636c0.706-0.004,1.47,0.277,2.132,0.635v-1.03
	c-0.642-0.295-1.367-0.515-2.132-0.518C723.973,86.23,723.247,86.451,722.605,86.745z M722.605,89.763v1.032
	c0.661-0.358,1.422-0.648,2.131-0.636c0.706-0.004,1.47,0.277,2.132,0.635v-1.03c-0.642-0.295-1.367-0.515-2.132-0.518
	C723.973,89.248,723.247,89.468,722.605,89.763z M722.605,92.91v1.032c0.661-0.358,1.422-0.648,2.131-0.636
	c0.706-0.004,1.47,0.277,2.132,0.635v-1.03c-0.642-0.295-1.367-0.515-2.132-0.518C723.973,92.396,723.247,92.616,722.605,92.91z
	 M731.132,86.745v1.032c0.661-0.358,1.422-0.648,2.131-0.636c0.706-0.004,1.47,0.277,2.132,0.635v-1.03
	c-0.642-0.295-1.367-0.515-2.132-0.518C732.499,86.23,731.773,86.451,731.132,86.745z M731.132,89.763v1.032
	c0.661-0.358,1.422-0.648,2.131-0.636c0.706-0.004,1.47,0.277,2.132,0.635v-1.03c-0.642-0.295-1.367-0.515-2.132-0.518
	C732.499,89.248,731.773,89.468,731.132,89.763z M731.132,92.91v1.032c0.661-0.358,1.422-0.648,2.131-0.636
	c0.706-0.004,1.47,0.277,2.132,0.635v-1.03c-0.642-0.295-1.367-0.515-2.132-0.518C732.499,92.396,731.773,92.616,731.132,92.91z
	 M737.861,84.306c-0.015-0.013-0.565-0.544-1.404-1.084c-0.841-0.536-1.969-1.098-3.193-1.104c-1.227,0.006-2.354,0.568-3.194,1.104
	c-0.454,0.292-0.823,0.582-1.069,0.788c-0.246-0.206-0.615-0.496-1.069-0.788c-0.841-0.536-1.969-1.098-3.194-1.104
	c-1.226,0.006-2.354,0.568-3.193,1.104c-0.839,0.54-1.39,1.071-1.404,1.084L720,84.44v15.678l0.809-0.78
	c0,0,0.025-0.024,0.084-0.077c0.396-0.377,2.25-1.87,3.844-1.844c0.906-0.006,1.91,0.459,2.668,0.951
	c0.38,0.243,0.699,0.488,0.921,0.673c0.111,0.091,0.197,0.167,0.256,0.22c0.058,0.053,0.084,0.077,0.084,0.077L729,99.661
	l0.335-0.323c0,0,0.025-0.024,0.084-0.077c0.396-0.377,2.25-1.87,3.845-1.844c0.905-0.006,1.909,0.459,2.667,0.951
	c0.38,0.243,0.699,0.488,0.921,0.673c0.111,0.091,0.197,0.167,0.255,0.22c0.059,0.053,0.085,0.077,0.085,0.077l0.809,0.78V84.44
	L737.861,84.306z M728.526,98.021c-0.177-0.132-0.376-0.272-0.596-0.413c-0.841-0.537-1.969-1.1-3.194-1.105
	c-1.226,0.006-2.354,0.568-3.193,1.105c-0.221,0.141-0.42,0.281-0.596,0.413V84.825c0.489-0.443,2.26-1.818,3.789-1.793
	c0.906-0.006,1.91,0.459,2.668,0.95c0.38,0.244,0.699,0.49,0.921,0.673c0.083,0.069,0.147,0.125,0.201,0.172V98.021z M737.053,98.02
	c-0.176-0.131-0.376-0.271-0.596-0.412c-0.841-0.537-1.969-1.1-3.193-1.105c-1.227,0.006-2.354,0.568-3.194,1.105
	c-0.221,0.141-0.42,0.281-0.596,0.413V84.825c0.484-0.44,2.256-1.818,3.79-1.793c0.905-0.006,1.909,0.459,2.667,0.95
	c0.38,0.244,0.699,0.49,0.921,0.673c0.08,0.066,0.147,0.125,0.201,0.171V98.02z"/>
<path fill="#FFFFFF" d="M729,109.118c-4.971,0-8.999,4.029-9,9c0.001,4.971,4.029,9,9,9s9-4.029,9-9S733.971,109.118,729,109.118z
	 M723.82,124.282c1.259-2.24,2.825-3.644,4.431-3.958l0.071-0.908c-0.899-0.328-1.613-1.352-1.611-2.601
	c-0.001-0.772,0.271-1.463,0.693-1.951c0.425-0.489,0.984-0.771,1.596-0.772c0.611,0.001,1.171,0.283,1.596,0.772
	c0.422,0.488,0.694,1.179,0.693,1.951c0.002,1.249-0.712,2.272-1.611,2.601l0.071,0.908c1.605,0.314,3.172,1.718,4.431,3.958
	c-1.4,1.178-3.205,1.889-5.18,1.889S725.222,125.459,723.82,124.282z M734.887,123.61c-1.08-1.85-2.398-3.227-3.913-3.885
	c0.779-0.679,1.262-1.738,1.264-2.91c-0.004-1.977-1.394-3.66-3.237-3.672c-1.844,0.012-3.233,1.695-3.237,3.672
	c0.001,1.172,0.484,2.231,1.264,2.91c-1.515,0.658-2.833,2.035-3.913,3.885c-1.344-1.439-2.166-3.367-2.166-5.492
	c0-2.225,0.9-4.236,2.358-5.693c1.459-1.459,3.47-2.359,5.694-2.359s4.235,0.9,5.694,2.359c1.458,1.457,2.358,3.469,2.358,5.693
	C737.053,120.243,736.23,122.17,734.887,123.61z"/>
<path fill="#FFFFFF" d="M732.986,139.564v-0.957h-2.013v-1.053h-3.947v1.053h-2.013v0.957h-2.882v14.554h13.736v-14.554H732.986z
	 M725.96,139.373h2.014v-1.054h2.052l0.001,1.054h2.013v1.915h-6.079V139.373z M734.921,153.352h-11.842v-13.021h1.935v1.723h7.973
	v-1.723h1.935V153.352z M727.578,149.746l-2.507-2.026l-0.67,0.541l3.177,2.569l6.02-4.867l-0.67-0.541L727.578,149.746z"/>
<path fill="#FFFFFF" d="M720,154.118v-18h18v17.617v0.383H720L720,154.118z M737.526,153.735v-0.384V153.735L737.526,153.735z
	 M720.947,153.351h16.105v-16.468h-16.105V153.351L720.947,153.351z"/>
<path fill="#FFFFFF" d="M729.001,165.276c-2.639,0-4.777,2.146-4.777,4.794c0,2.647,2.139,4.794,4.777,4.794
	s4.776-2.146,4.776-4.794C733.777,167.421,731.64,165.276,729.001,165.276z M729.001,173.906c-2.111-0.005-3.818-1.718-3.822-3.836
	c0.004-2.119,1.711-3.832,3.822-3.836c2.11,0.004,3.817,1.717,3.821,3.836C732.818,172.188,731.111,173.901,729.001,173.906z
	 M735.318,172.92c0.39-0.87,0.609-1.834,0.609-2.851c0-3.84-3.101-6.952-6.927-6.952s-6.927,3.112-6.928,6.952
	c0,1.017,0.22,1.98,0.61,2.851L720,177.08l0.502,0.729l3.992-0.858l0.854,4.007l0.868,0.16l2.644-4.1
	c0.047,0.001,0.094,0.004,0.141,0.004s0.093-0.003,0.14-0.004l2.644,4.1l0.868-0.16l0.854-4.007l3.993,0.858l0.5-0.729
	L735.318,172.92z M726.041,179.625l-0.713-3.343l-0.566-0.368l-3.332,0.716l1.775-2.753c1.026,1.57,2.67,2.698,4.585,3.037
	L726.041,179.625z M729.001,176.062c-3.299-0.005-5.966-2.683-5.972-5.992c0.006-3.31,2.673-5.987,5.972-5.993
	c3.298,0.006,5.965,2.684,5.971,5.993C734.966,173.379,732.299,176.057,729.001,176.062z M733.24,175.914l-0.567,0.368l-0.713,3.343
	l-1.749-2.711c1.915-0.339,3.559-1.467,4.585-3.038l1.776,2.754L733.24,175.914z"/>
<g>
	<g>
		<path fill="#FFFFFF" d="M726.868,190.118c-3.793,0.001-6.868,3.075-6.868,6.869c0,3.793,3.075,6.867,6.868,6.868
			c3.794-0.001,6.869-3.075,6.869-6.868C733.737,193.193,730.662,190.119,726.868,190.118z M726.868,202.908
			c-3.27-0.006-5.915-2.65-5.92-5.921c0.005-3.271,2.65-5.915,5.92-5.921c3.271,0.006,5.916,2.65,5.922,5.921
			C732.784,200.257,730.139,202.902,726.868,202.908z M737.861,207.309l-5.095-5.095c-0.186-0.185-0.485-0.185-0.671,0
			c-0.185,0.185-0.185,0.484,0,0.67l5.096,5.095c0.093,0.093,0.214,0.139,0.335,0.139s0.243-0.046,0.335-0.139
			C738.047,207.794,738.047,207.495,737.861,207.309z"/>
	</g>
</g>
<path fill="#FFFFFF" d="M675.079,285.001c-9.941,0.001-18,8.058-18.001,18c0.001,9.94,8.06,17.999,18.001,18
	c9.94-0.001,17.999-8.06,17.999-18C693.078,293.059,685.02,285.002,675.079,285.001z M686.466,314.389
	c-2.918,2.916-6.938,4.717-11.387,4.717c-4.451,0-8.472-1.801-11.389-4.717c-2.916-2.917-4.717-6.938-4.717-11.388
	s1.801-8.47,4.717-11.388c2.917-2.916,6.938-4.717,11.389-4.719c4.449,0.002,8.469,1.803,11.387,4.719
	c2.916,2.918,4.717,6.938,4.717,11.388S689.382,311.472,686.466,314.389z M666,303l3.593-3.592c0.369-0.37,0.369-0.971,0-1.34
	c-0.371-0.371-0.97-0.371-1.34,0l0,0l-4.263,4.262c-0.37,0.371-0.37,0.972,0,1.341l4.263,4.263c0.184,0.186,0.427,0.278,0.67,0.278
	c0.242,0,0.484-0.093,0.67-0.278c0.37-0.369,0.37-0.969,0-1.339L666,303z M677.872,297.891c-0.468-0.234-1.036-0.045-1.27,0.424
	l-4.264,8.526c-0.234,0.468-0.045,1.036,0.424,1.271c0.136,0.068,0.28,0.101,0.422,0.101c0.348,0,0.683-0.192,0.849-0.524
	l4.263-8.526C678.529,298.693,678.341,298.125,677.872,297.891z M686.646,302.331l-4.264-4.264c-0.37-0.37-0.971-0.37-1.34,0.001
	c-0.37,0.369-0.37,0.971,0,1.34l3.594,3.593l-3.594,3.593c-0.371,0.37-0.371,0.971,0,1.342c0.185,0.185,0.428,0.277,0.67,0.277
	s0.484-0.093,0.67-0.277l4.264-4.264c0.178-0.18,0.276-0.418,0.276-0.671S686.823,302.51,686.646,302.331z"/>
<path fill="#FFFFFF" d="M300.016,0C134.326,0.016,0.016,134.293,0,300c0.016,165.674,134.326,299.983,300.016,300
	C465.69,599.983,600,465.674,600,300C600,134.293,465.69,0.016,300.016,0z M489.795,489.795
	c-48.633,48.601-115.625,78.613-189.779,78.613c-74.186,0-141.194-30.013-189.811-78.613C61.605,441.179,31.592,374.17,31.592,300
	s30.013-141.162,78.613-189.795c48.617-48.6,115.625-78.613,189.811-78.646c74.154,0.033,141.146,30.046,189.779,78.646
	C538.396,158.838,568.408,225.83,568.408,300S538.396,441.179,489.795,489.795z M148.698,299.984l59.88-59.863
	c6.152-6.169,6.152-16.179,0-22.331c-6.185-6.185-16.162-6.185-22.331,0l0,0l-71.045,71.029c-6.168,6.185-6.168,16.194,0,22.347
	l71.045,71.045c3.06,3.093,7.113,4.639,11.166,4.639c4.037,0,8.073-1.546,11.166-4.639c6.168-6.152,6.168-16.146,0-22.314
	L148.698,299.984z M346.565,214.828c-7.796-3.906-17.269-0.749-21.158,7.063l-71.062,142.106c-3.906,7.797-0.749,17.27,7.064,21.176
	c2.262,1.139,4.671,1.676,7.031,1.676c5.794,0,11.377-3.206,14.144-8.74l71.045-142.106
	C357.52,228.207,354.378,218.734,346.565,214.828z M492.79,288.834l-71.062-71.061c-6.169-6.168-16.179-6.168-22.331,0.016
	c-6.168,6.152-6.168,16.179,0,22.331L459.294,300l-59.896,59.88c-6.185,6.168-6.185,16.178,0,22.363
	c3.076,3.076,7.129,4.622,11.166,4.622c4.036,0,8.072-1.546,11.165-4.622l71.062-71.062c2.962-2.995,4.605-6.966,4.605-11.182
	C497.396,295.785,495.752,291.813,492.79,288.834z"/>
<path fill="#FFFFFF" d="M782.131,315.79h1.895v-8.525h-1.895V315.79z M786.395,313.659h1.894v-8.527h-1.894V313.659z
	 M790.656,311.526h1.896v-8.525h-1.896V311.526z M794.92,309.396h1.895v-8.526h-1.895V309.396z M787.341,293.415l-18,8.999v5.435
	l10.421,5.211v-5.211l18.225-9.111L787.341,293.415z M777.867,309.993l-6.633-3.316v-2.145l6.633,3.316V309.993z M778.813,306.204
	L772.404,303l14.937-7.468l6.407,3.205L778.813,306.204z M783.078,285.001c-9.941,0-18,8.059-18,18c0,9.94,8.059,17.998,18,18
	c9.94-0.002,17.999-8.06,18-18C801.077,293.06,793.019,285.001,783.078,285.001z M794.465,314.388
	c-2.916,2.916-6.938,4.717-11.387,4.717c-4.451,0-8.471-1.801-11.389-4.717c-2.916-2.918-4.717-6.938-4.717-11.387
	c0-4.451,1.801-8.471,4.717-11.388c2.918-2.916,6.938-4.716,11.389-4.718c4.449,0.002,8.471,1.802,11.387,4.718
	c2.917,2.917,4.719,6.937,4.719,11.388C799.184,307.45,797.382,311.47,794.465,314.388z"/>
<path fill="#FFFFFF" d="M888.007,302.681c-0.487-0.129-0.979-0.191-1.462-0.19c-2.172-0.007-4.205,1.282-4.77,3.411
	c-0.096,0.359-0.142,0.726-0.141,1.088c0.011,2.217,1.661,4.164,3.987,4.777c0.489,0.129,0.98,0.191,1.462,0.189h0.018
	c2.166,0,4.186-1.288,4.754-3.408l-0.917-0.24l0.917,0.238c0.095-0.361,0.139-0.727,0.139-1.087
	C891.982,305.241,890.332,303.292,888.007,302.681z M890.021,308.067c-0.299,1.156-1.476,1.989-2.938,1.995
	c-0.319,0-0.648-0.041-0.981-0.128c-1.59-0.416-2.586-1.727-2.573-2.945c0-0.203,0.024-0.404,0.078-0.605
	c0.295-1.16,1.473-1.993,2.938-2c0.318,0,0.648,0.042,0.98,0.13c1.59,0.413,2.587,1.726,2.574,2.945
	C890.1,307.662,890.074,307.864,890.021,308.067z M880.798,299.15l1.454,0.485l12.142,4.047l0.001,10.131l6.156-6.157v-9.603
	l-13.992-4.662L880.798,299.15z M898.656,299.421v7.45l-2.368,2.368v-6.922l-11.981-3.994l2.764-2.766L898.656,299.421z
	 M891.078,285.001c-9.941,0-17.999,8.059-18,18c0.001,9.94,8.059,17.998,18,18c9.941-0.002,17.999-8.06,18-18
	C909.077,293.06,901.02,285.001,891.078,285.001z M902.467,314.388c-2.918,2.916-6.938,4.717-11.389,4.717
	s-8.471-1.801-11.387-4.717c-2.918-2.918-4.719-6.938-4.719-11.387c0-4.451,1.801-8.471,4.719-11.388
	c2.916-2.916,6.937-4.716,11.387-4.718c4.45,0.002,8.471,1.802,11.389,4.718c2.916,2.917,4.717,6.937,4.717,11.388
	C907.184,307.45,905.383,311.47,902.467,314.388z"/>
</svg>